<mxfile host="app.diagrams.net" modified="2020-09-11T18:08:10.718Z" agent="5.0 (Windows NT 10.0; Win64; x64) AppleWebKit/537.36 (KHTML, like Gecko) Chrome/85.0.4183.102 Safari/537.36" etag="Iwdwf-577yLRtvChavsD" version="13.6.10" type="github">
  <diagram id="PF5OZO0sLYhgLma-wUBA" name="Page-1">
    <mxGraphModel dx="684" dy="752" grid="1" gridSize="10" guides="1" tooltips="1" connect="1" arrows="1" fold="1" page="1" pageScale="1" pageWidth="850" pageHeight="1100" math="0" shadow="0">
      <root>
        <mxCell id="0" />
        <mxCell id="1" parent="0" />
        <mxCell id="0jxr4Tn4Jw2ErrGgdH6D-26" value="" style="edgeStyle=orthogonalEdgeStyle;rounded=0;orthogonalLoop=1;jettySize=auto;html=1;" edge="1" parent="1" source="0jxr4Tn4Jw2ErrGgdH6D-2" target="0jxr4Tn4Jw2ErrGgdH6D-5">
          <mxGeometry relative="1" as="geometry" />
        </mxCell>
        <mxCell id="0jxr4Tn4Jw2ErrGgdH6D-2" value="start" style="ellipse;whiteSpace=wrap;html=1;" vertex="1" parent="1">
          <mxGeometry x="240" y="40" width="120" height="80" as="geometry" />
        </mxCell>
        <mxCell id="0jxr4Tn4Jw2ErrGgdH6D-14" value="" style="edgeStyle=orthogonalEdgeStyle;rounded=0;orthogonalLoop=1;jettySize=auto;html=1;" edge="1" parent="1" source="0jxr4Tn4Jw2ErrGgdH6D-5" target="0jxr4Tn4Jw2ErrGgdH6D-13">
          <mxGeometry relative="1" as="geometry" />
        </mxCell>
        <mxCell id="0jxr4Tn4Jw2ErrGgdH6D-5" value="Display: &quot;Enter starting balance in dollars&quot;" style="shape=parallelogram;perimeter=parallelogramPerimeter;whiteSpace=wrap;html=1;fixedSize=1;" vertex="1" parent="1">
          <mxGeometry x="470" y="40" width="150" height="80" as="geometry" />
        </mxCell>
        <mxCell id="0jxr4Tn4Jw2ErrGgdH6D-23" value="" style="edgeStyle=orthogonalEdgeStyle;rounded=0;orthogonalLoop=1;jettySize=auto;html=1;" edge="1" parent="1" source="0jxr4Tn4Jw2ErrGgdH6D-6" target="0jxr4Tn4Jw2ErrGgdH6D-22">
          <mxGeometry relative="1" as="geometry" />
        </mxCell>
        <mxCell id="0jxr4Tn4Jw2ErrGgdH6D-6" value="Display &quot;Enter yearly contribution in dollars&quot;" style="shape=parallelogram;perimeter=parallelogramPerimeter;whiteSpace=wrap;html=1;fixedSize=1;" vertex="1" parent="1">
          <mxGeometry x="250" y="335" width="150" height="80" as="geometry" />
        </mxCell>
        <mxCell id="0jxr4Tn4Jw2ErrGgdH6D-8" value="Display: &quot;Enter Average Return on Investment&quot;" style="shape=parallelogram;perimeter=parallelogramPerimeter;whiteSpace=wrap;html=1;fixedSize=1;" vertex="1" parent="1">
          <mxGeometry x="462.5" y="670" width="165" height="80" as="geometry" />
        </mxCell>
        <mxCell id="0jxr4Tn4Jw2ErrGgdH6D-10" value="Display: &quot;Enter Number of Years for the Report" style="shape=parallelogram;perimeter=parallelogramPerimeter;whiteSpace=wrap;html=1;fixedSize=1;" vertex="1" parent="1">
          <mxGeometry x="170" y="1460" width="170" height="90" as="geometry" />
        </mxCell>
        <mxCell id="0jxr4Tn4Jw2ErrGgdH6D-17" value="" style="edgeStyle=orthogonalEdgeStyle;rounded=0;orthogonalLoop=1;jettySize=auto;html=1;" edge="1" parent="1" source="0jxr4Tn4Jw2ErrGgdH6D-13" target="0jxr4Tn4Jw2ErrGgdH6D-15">
          <mxGeometry relative="1" as="geometry" />
        </mxCell>
        <mxCell id="0jxr4Tn4Jw2ErrGgdH6D-13" value="get number" style="shape=parallelogram;perimeter=parallelogramPerimeter;whiteSpace=wrap;html=1;fixedSize=1;" vertex="1" parent="1">
          <mxGeometry x="470" y="130" width="150" height="80" as="geometry" />
        </mxCell>
        <mxCell id="0jxr4Tn4Jw2ErrGgdH6D-20" value="" style="edgeStyle=orthogonalEdgeStyle;rounded=0;orthogonalLoop=1;jettySize=auto;html=1;" edge="1" parent="1" source="0jxr4Tn4Jw2ErrGgdH6D-15" target="0jxr4Tn4Jw2ErrGgdH6D-29">
          <mxGeometry relative="1" as="geometry">
            <mxPoint x="565" y="330" as="targetPoint" />
          </mxGeometry>
        </mxCell>
        <mxCell id="0jxr4Tn4Jw2ErrGgdH6D-15" value="CheckNumber" style="shape=process;whiteSpace=wrap;html=1;backgroundOutline=1;" vertex="1" parent="1">
          <mxGeometry x="462.5" y="230" width="165" height="80" as="geometry" />
        </mxCell>
        <mxCell id="0jxr4Tn4Jw2ErrGgdH6D-21" value="" style="edgeStyle=orthogonalEdgeStyle;rounded=0;orthogonalLoop=1;jettySize=auto;html=1;" edge="1" parent="1" target="0jxr4Tn4Jw2ErrGgdH6D-6">
          <mxGeometry relative="1" as="geometry">
            <mxPoint x="480" y="375" as="sourcePoint" />
          </mxGeometry>
        </mxCell>
        <mxCell id="0jxr4Tn4Jw2ErrGgdH6D-25" value="" style="edgeStyle=orthogonalEdgeStyle;rounded=0;orthogonalLoop=1;jettySize=auto;html=1;" edge="1" parent="1" source="0jxr4Tn4Jw2ErrGgdH6D-22" target="0jxr4Tn4Jw2ErrGgdH6D-24">
          <mxGeometry relative="1" as="geometry" />
        </mxCell>
        <mxCell id="0jxr4Tn4Jw2ErrGgdH6D-22" value="get number" style="shape=parallelogram;perimeter=parallelogramPerimeter;whiteSpace=wrap;html=1;fixedSize=1;" vertex="1" parent="1">
          <mxGeometry x="250" y="460" width="150" height="80" as="geometry" />
        </mxCell>
        <mxCell id="0jxr4Tn4Jw2ErrGgdH6D-31" value="" style="edgeStyle=orthogonalEdgeStyle;rounded=0;orthogonalLoop=1;jettySize=auto;html=1;" edge="1" parent="1" source="0jxr4Tn4Jw2ErrGgdH6D-24" target="0jxr4Tn4Jw2ErrGgdH6D-30">
          <mxGeometry relative="1" as="geometry" />
        </mxCell>
        <mxCell id="0jxr4Tn4Jw2ErrGgdH6D-24" value="CheckNumber" style="shape=process;whiteSpace=wrap;html=1;backgroundOutline=1;" vertex="1" parent="1">
          <mxGeometry x="242.5" y="570" width="165" height="80" as="geometry" />
        </mxCell>
        <mxCell id="0jxr4Tn4Jw2ErrGgdH6D-29" value="Put in box called SB" style="rounded=0;whiteSpace=wrap;html=1;" vertex="1" parent="1">
          <mxGeometry x="485" y="345" width="120" height="60" as="geometry" />
        </mxCell>
        <mxCell id="0jxr4Tn4Jw2ErrGgdH6D-34" value="" style="edgeStyle=orthogonalEdgeStyle;rounded=0;orthogonalLoop=1;jettySize=auto;html=1;" edge="1" parent="1" source="0jxr4Tn4Jw2ErrGgdH6D-30" target="0jxr4Tn4Jw2ErrGgdH6D-8">
          <mxGeometry relative="1" as="geometry" />
        </mxCell>
        <mxCell id="0jxr4Tn4Jw2ErrGgdH6D-30" value="put in box called YC" style="rounded=0;whiteSpace=wrap;html=1;" vertex="1" parent="1">
          <mxGeometry x="265" y="680" width="120" height="60" as="geometry" />
        </mxCell>
      </root>
    </mxGraphModel>
  </diagram>
</mxfile>
